<svg width="259" height="16" viewBox="0 0 259 16" fill="none" xmlns="http://www.w3.org/2000/svg">
<path d="M9.61169 5.72778L9.72791 5.96313L9.98767 6.00122L13.5912 6.52759L10.9847 9.0686L10.7963 9.2522L10.8402 9.51099L11.4554 13.0979L8.23279 11.4036L8.00037 11.2815L7.76697 11.4036L4.54333 13.0979L5.15955 9.51099L5.20349 9.2522L5.01599 9.0686L2.40759 6.52759L6.01208 6.00122L6.27185 5.96313L6.38806 5.72778L7.99939 2.46216L9.61169 5.72778Z" fill="#FF6600" stroke="#FF6600"/>
<path d="M29.6117 5.72778L29.7279 5.96313L29.9877 6.00122L33.5912 6.52759L30.9847 9.0686L30.7963 9.2522L30.8402 9.51099L31.4554 13.0979L28.2328 11.4036L28.0004 11.2815L27.767 11.4036L24.5433 13.0979L25.1595 9.51099L25.2035 9.2522L25.016 9.0686L22.4076 6.52759L26.0121 6.00122L26.2719 5.96313L26.3881 5.72778L27.9994 2.46216L29.6117 5.72778Z" fill="#FF6600" stroke="#FF6600"/>
<path d="M49.6117 5.72778L49.7279 5.96313L49.9877 6.00122L53.5912 6.52759L50.9847 9.0686L50.7963 9.2522L50.8402 9.51099L51.4554 13.0979L48.2328 11.4036L48.0004 11.2815L47.767 11.4036L44.5433 13.0979L45.1595 9.51099L45.2035 9.2522L45.016 9.0686L42.4076 6.52759L46.0121 6.00122L46.2719 5.96313L46.3881 5.72778L47.9994 2.46216L49.6117 5.72778Z" fill="#FF6600" stroke="#FF6600"/>
<path d="M69.6117 5.72778L69.7279 5.96313L69.9877 6.00122L73.5912 6.52759L70.9847 9.0686L70.7963 9.2522L70.8402 9.51099L71.4554 13.0979L68.2328 11.4036L68.0004 11.2815L67.767 11.4036L64.5433 13.0979L65.1595 9.51099L65.2035 9.2522L65.016 9.0686L62.4076 6.52759L66.0121 6.00122L66.2719 5.96313L66.3881 5.72778L67.9994 2.46216L69.6117 5.72778Z" fill="#FF6600" stroke="#FF6600"/>
<path d="M89.6117 5.72778L89.7279 5.96313L89.9877 6.00122L93.5912 6.52759L90.9847 9.0686L90.7963 9.2522L90.8402 9.51099L91.4554 13.0979L88.2328 11.4036L88.0004 11.2815L87.767 11.4036L84.5433 13.0979L85.1595 9.51099L85.2035 9.2522L85.016 9.0686L82.4076 6.52759L86.0121 6.00122L86.2719 5.96313L86.3881 5.72778L87.9994 2.46216L89.6117 5.72778Z" fill="#FF6600" stroke="#FF6600"/>
</svg>
