<svg width="40" height="40" viewBox="0 0 40 40" fill="none" xmlns="http://www.w3.org/2000/svg">
<g clip-path="url(#clip0_11_919)">
<path d="M39.3334 6.33333H38.6667V4.99997C38.6659 4.26396 38.0695 3.66747 37.3334 3.66661H36C35.9991 2.9306 35.4027 2.33411 34.6666 2.33325H33.3333C32.5973 2.33411 32.0008 2.9306 31.9999 3.66661V6.33325H24.6666V7.66661H27.3332V27.6666H22V25H23.3334C24.0688 24.9978 24.6645 24.4021 24.6667 23.6666V7.66661H15.3334V23.6666C15.3355 24.4021 15.9312 24.9978 16.6667 25H18V27.6666H12.6666V7.66661H15.3334L15.3333 6.33333H8V3.66661C7.99914 2.9306 7.40266 2.33411 6.66664 2.33325H5.33336C4.59734 2.33411 4.00086 2.9306 4 3.66661H2.66664C1.93062 3.66747 1.33414 4.26396 1.33336 4.99997V6.33333H0.666641C0.298438 6.33333 0 6.63177 0 6.99997C0 7.36817 0.298438 7.66661 0.666641 7.66661H1.33328V8.99997C1.33414 9.73599 1.93062 10.3325 2.66664 10.3333H4C4.00086 11.0693 4.59727 11.6658 5.33336 11.6667H6.66672C7.40273 11.6658 7.99922 11.0694 8.00008 10.3333V7.66661H10V16.3333H9.33336C8.96562 16.3343 8.66781 16.6322 8.66672 16.9999V35.6665C7.93031 35.6665 7.33336 36.2635 7.33336 36.9999C7.33336 37.7363 7.93031 38.3333 8.66672 38.3333H12.6667C13.4031 38.3333 14.0001 37.7363 14.0001 36.9999C14.0001 36.2635 13.4031 35.6665 12.6667 35.6665V30.3332H18V37.6665C17.9999 37.8433 18.0702 38.0129 18.1952 38.138C18.3202 38.263 18.4898 38.3333 18.6667 38.3333H21.3334C21.5102 38.3333 21.6798 38.2631 21.8048 38.138C21.9298 38.013 22.0001 37.8434 22.0001 37.6665V30.3332H27.3334V35.6665C26.597 35.6665 26.0001 36.2635 26.0001 36.9999C26.0001 37.7363 26.597 38.3333 27.3334 38.3333H31.3334C32.0698 38.3333 32.6668 37.7363 32.6668 36.9999C32.6668 36.2635 32.0698 35.6665 31.3334 35.6665V17C31.3323 16.6322 31.0345 16.3344 30.6668 16.3333H30V7.66661H32V10.3333C32.0009 11.0693 32.5973 11.6658 33.3334 11.6666H34.6667C35.4027 11.6658 35.9992 11.0693 36.0001 10.3333H37.3334C38.0695 10.3324 38.6659 9.73599 38.6668 8.99989V7.66661H39.3334C39.7016 7.66661 40.0001 7.3681 40.0001 6.99997C40.0001 6.63185 39.7016 6.33333 39.3334 6.33333ZM4 8.99997H2.66664V4.99997H4V8.99997ZM5.33336 10.3333V3.66661H6.66672L6.66703 6.99833L6.66672 6.99989L6.66703 7.00146L6.66734 10.3332H5.33336V10.3333ZM20.6666 37H19.3333V30.3333H20.6666V37ZM20.6666 27.6666H19.3333V25H20.6666V27.6666ZM34.6666 10.3333H33.3333V3.66661H34.6666V10.3333ZM37.3334 8.99997H36V4.99997H37.3334V8.99997Z" fill="#080910"/>
<path d="M24.6666 2.99999C24.6645 2.26452 24.0688 1.66881 23.3333 1.66663H16.6666C15.9311 1.66881 15.3354 2.26444 15.3333 2.99999V6.33334H24.6666V2.99999Z" fill="#080910"/>
</g>
<defs>
<clipPath id="clip0_11_919">
<rect width="40" height="40" fill="white"/>
</clipPath>
</defs>
</svg>
