<svg width="40" height="40" viewBox="0 0 40 40" fill="none" xmlns="http://www.w3.org/2000/svg">
<path d="M15.6156 27.5C15.6156 28.5338 16.4569 29.375 17.4906 29.375C18.5244 29.375 19.3656 28.5338 19.3656 27.5C19.3656 26.4662 18.5244 25.625 17.4906 25.625C16.4569 25.625 15.6156 26.4662 15.6156 27.5ZM16.8656 26.875H18.1156V28.125H16.8656V26.875Z" fill="#080910"/>
<path d="M20.6156 19.375V18.0456C20.535 18.025 20.4569 17.9987 20.3794 17.9706L19.5919 21.3819C20.2094 20.9262 20.6156 20.1994 20.6156 19.375Z" fill="#080910"/>
<path d="M18.2775 15.54C18.0175 15.5919 17.7563 15.6263 17.4931 15.6263C17.2363 15.6263 16.98 15.5925 16.7237 15.5431C16.5337 16.1769 16.1869 16.785 15.7188 17.2531L16.7838 21.8669C16.8119 21.8675 16.8375 21.875 16.8656 21.875H18.1156C18.1431 21.875 18.1694 21.8675 18.1969 21.8669L19.2656 17.2363C18.8069 16.77 18.4662 16.1675 18.2775 15.54Z" fill="#080910"/>
<path d="M14.3656 18.0494V19.375C14.3656 20.1994 14.7719 20.9256 15.3887 21.3813L14.6025 17.975C14.525 18.0025 14.4462 18.0288 14.3656 18.0494Z" fill="#080910"/>
<path d="M17.615 24.3875L17.9063 23.125H17.0744L17.3657 24.3875C17.4082 24.3856 17.4475 24.375 17.4907 24.375C17.5332 24.375 17.5732 24.3856 17.615 24.3875Z" fill="#080910"/>
<path d="M22.4207 6.875C22.4657 7.07812 22.4907 7.2875 22.4907 7.5V9.375C23.18 9.375 23.7407 8.81438 23.7407 8.125C23.7407 7.43562 23.18 6.875 22.4907 6.875H22.4207Z" fill="#080910"/>
<path d="M21.2406 7.5C21.2406 6.44437 20.2325 5.625 19.3656 5.625C19.1506 5.625 18.9512 5.67937 18.7556 5.79125C17.9625 6.24437 17.0168 6.245 16.2243 5.79125C16.0294 5.67937 15.83 5.625 15.6156 5.625C14.7487 5.625 13.7406 6.44437 13.7406 7.5V9.9675C13.7406 11.5512 14.5112 13.0294 15.7525 13.825C17.0775 14.6731 18.21 14.385 18.9269 13.9925C20.2675 13.2594 21.2406 11.5806 21.2406 10.0006V7.5ZM19.3656 8.125C19.7106 8.125 19.9906 8.405 19.9906 8.75C19.9906 9.095 19.7106 9.375 19.3656 9.375C19.0206 9.375 18.7406 9.095 18.7406 8.75C18.7406 8.405 19.02 8.125 19.3656 8.125ZM15.6156 8.125C15.9606 8.125 16.2406 8.405 16.2406 8.75C16.2406 9.095 15.9606 9.375 15.6156 9.375C15.2706 9.375 14.9906 9.095 14.9906 8.75C14.9906 8.405 15.27 8.125 15.6156 8.125ZM17.4906 13.125C16.1119 13.125 14.9906 12.0037 14.9906 10.625H16.2406C16.2406 11.3144 16.8012 11.875 17.4906 11.875C18.18 11.875 18.7406 11.3144 18.7406 10.625H19.9906C19.9906 12.0037 18.8687 13.125 17.4906 13.125Z" fill="#080910"/>
<path d="M13.1694 5.625C13.7519 4.88 14.6444 4.375 15.6156 4.375C16.0475 4.375 16.4619 4.48625 16.8456 4.70625C17.2556 4.94125 17.725 4.94125 18.1344 4.70625C18.5187 4.48625 18.9331 4.375 19.3656 4.375C20.3369 4.375 21.2294 4.88 21.8119 5.625H22.4906C22.4938 5.625 22.4969 5.62625 22.5 5.62625V4.375C22.5 2.99625 21.3744 1.875 19.9906 1.875H14.9906C13.6175 1.875 12.5 2.99625 12.5 4.375L12.5006 5.625H13.1694Z" fill="#080910"/>
<path d="M16.1519 24.6881L15.7525 22.9562C14.2269 22.4812 13.1156 21.055 13.1156 19.375V18.125H10.7519C10.9394 19.1825 11.25 21.1344 11.25 22.5C11.25 24.1081 10.8212 25.295 10.6387 25.7275C10.675 26.0975 10.7525 27.0069 10.775 28.125H14.3656C14.3875 28.125 14.4081 28.1306 14.43 28.1312C14.3881 27.9275 14.3656 27.7163 14.3656 27.5C14.3656 26.2581 15.0994 25.1919 16.1519 24.6881Z" fill="#080910"/>
<path d="M13.1156 31.875H14.3656V34.375H13.1156V31.875Z" fill="#080910"/>
<path d="M21.8656 17.9737V19.375C21.8656 21.0556 20.7544 22.4812 19.2288 22.9562L18.8294 24.6881C19.8819 25.1912 20.6163 26.2581 20.6163 27.5C20.6163 29.2231 19.2144 30.625 17.4913 30.625C16.785 30.625 16.14 30.3806 15.6163 29.9837V35.625H24.3663V16.9325C23.6206 17.0612 22.9956 17.3912 22.4738 17.6712C22.2525 17.7894 22.0544 17.8937 21.8656 17.9737Z" fill="#080910"/>
<path d="M10.0575 33.7613C10.2506 34.2619 10.6081 35.3869 10.6156 36.8719V36.875H14.3656V35.625H11.8656V30.625H14.3656V29.375H10.7725C10.7362 30.9 10.5619 32.57 10.0575 33.7613Z" fill="#080910"/>
<path d="M12.4906 9.375V7.5C12.4906 7.2875 12.5156 7.07812 12.5606 6.875H12.4906C11.8012 6.875 11.2406 7.43562 11.2406 8.125C11.2406 8.81438 11.8012 9.375 12.4906 9.375Z" fill="#080910"/>
<path d="M37.0481 8.63937C36.97 7.63562 36.1487 6.875 35.1756 6.875H34.3656C33.6762 6.875 33.1156 7.43562 33.1156 8.125C33.1156 8.31687 33.1681 10 34.9906 10H35.7112L34.4256 18.9981L33.3243 17.87C32.8737 17.4294 32.1312 16.875 31.2406 16.875C29.6431 16.875 28.5681 17.9312 28.5575 17.9419L28.1156 18.3837L27.6737 17.9419C27.6656 17.9344 26.85 17.1519 25.6156 16.9337V24.3175C26.8606 24.1012 27.6644 23.3169 27.6737 23.3081L27.9912 22.9906L28.3943 23.1906C28.4168 23.2019 30.6918 24.3156 32.2925 23.7819C33.8725 23.2556 34.4119 22.2575 34.4337 22.215L34.6093 21.8806L34.9906 21.875C35.9218 21.875 36.7018 21.5706 37.2469 20.9937C37.8725 20.3319 38.1818 19.3256 38.1162 18.1594C37.985 15.8075 37.0575 8.71125 37.0481 8.63937Z" fill="#080910"/>
<path d="M10 22.5C10 21.1463 9.65375 19.0713 9.48187 18.125H9.375C7.30687 18.125 5.625 19.8069 5.625 21.875C5.625 23.0487 5.89375 23.93 6.43188 24.5681C6.27313 24.9469 6.11687 25.3863 5.97812 25.9106C5.74625 26.5363 5.625 27.495 5.625 28.75C5.625 31.0056 7.3575 33.3519 7.37562 33.3756L7.60938 33.6888L7.43062 34.0363C7.42625 34.0456 6.85687 35.1894 6.86562 36.8719C6.86875 37.5631 7.43 38.125 8.11562 38.125C8.45187 38.125 8.7675 37.9937 9.005 37.7556C9.23938 37.52 9.3675 37.2087 9.36562 36.8781C9.35687 35.165 8.81813 34.0338 8.8125 34.0225L8.67813 33.7456L8.81562 33.4706C9.97 31.1625 9.38437 25.7488 9.37875 25.6944L9.35812 25.5113L9.44062 25.3463C9.44562 25.3363 10 24.1881 10 22.5Z" fill="#080910"/>
<path d="M1.875 29.375V36.875H5.61562C5.60875 35.4506 5.9525 34.3556 6.1625 33.8219C5.695 33.1231 4.62187 31.3231 4.4175 29.375H1.875Z" fill="#080910"/>
</svg>
