<svg width="34" height="34" viewBox="0 0 34 34" fill="none" xmlns="http://www.w3.org/2000/svg">
<path d="M0 17C0 7.61116 7.61116 0 17 0C26.3888 0 34 7.61116 34 17C34 26.3888 26.3888 34 17 34C7.61116 34 0 26.3888 0 17Z" fill="#FF6600" fill-opacity="0.1"/>
<g clip-path="url(#clip0_11_1924)">
<path d="M24.5 13.25L17.7567 17.5453C17.5279 17.6782 17.268 17.7482 17.0034 17.7482C16.7387 17.7482 16.4788 17.6782 16.25 17.5453L9.5 13.25" stroke="#FF6600" stroke-width="2" stroke-linecap="round" stroke-linejoin="round"/>
<path d="M23 11H11C10.1716 11 9.5 11.6716 9.5 12.5V21.5C9.5 22.3284 10.1716 23 11 23H23C23.8284 23 24.5 22.3284 24.5 21.5V12.5C24.5 11.6716 23.8284 11 23 11Z" stroke="#FF6600" stroke-width="2" stroke-linecap="round" stroke-linejoin="round"/>
</g>
<defs>
<clipPath id="clip0_11_1924">
<rect width="18" height="18" fill="white" transform="translate(8 8)"/>
</clipPath>
</defs>
</svg>
