<svg width="40" height="40" viewBox="0 0 40 40" fill="none" xmlns="http://www.w3.org/2000/svg">
<path d="M33.6666 25.3333H31C29.8933 25.3333 29 26.2266 29 27.3333H18.3333C18.3333 26.2266 17.4333 25.3333 16.3333 25.3333H13.6666C12.56 25.3333 11.6666 26.2266 11.6666 27.3333V31.3333C11.6666 32.4333 12.56 33.3333 13.6666 33.3333H16.3333C17.4333 33.3333 18.3333 32.4333 18.3333 31.3333H29C29 32.4333 29.8933 33.3333 31 33.3333H33.6666C34.7666 33.3333 35.6666 32.4333 35.6666 31.3333V27.3333C35.6666 26.2266 34.7666 25.3333 33.6666 25.3333Z" fill="#080910"/>
<path d="M27.9467 32.6667H19.3867C18.8734 33.84 17.7 34.6667 16.3334 34.6667H13.6667C11.8267 34.6667 10.3334 33.1733 10.3334 31.3333V27.3333C10.3334 25.4933 11.8267 24 13.6667 24H16.3334C17.7 24 18.8734 24.8267 19.3867 26H27.9467C28.28 25.2333 28.9 24.62 29.6667 24.2867V10C29.6667 8.89333 28.8 8 27.74 8H26.2667C26.3067 8.21333 26.3334 8.44 26.3334 8.66667V10C26.3334 11.1 25.4334 12 24.3334 12H9.66671C8.56671 12 7.66671 11.1 7.66671 10V8.66667C7.66671 8.44 7.69337 8.21333 7.73337 8H6.26004C5.19337 8 4.33337 8.89333 4.33337 10V34C4.33337 35.1 5.19337 36 6.26004 36H27.74C28.68 36 29.46 35.2933 29.6267 34.3667C28.88 34.0267 28.2734 33.42 27.9467 32.6667ZM9.66671 14H19C19.3667 14 19.6667 14.2933 19.6667 14.6667C19.6667 15.0333 19.3667 15.3333 19 15.3333H9.66671C9.30004 15.3333 9.00004 15.0333 9.00004 14.6667C9.00004 14.2933 9.30004 14 9.66671 14ZM9.66671 17.3333H23C23.3667 17.3333 23.6667 17.6267 23.6667 18C23.6667 18.3667 23.3667 18.6667 23 18.6667H9.66671C9.30004 18.6667 9.00004 18.3667 9.00004 18C9.00004 17.6267 9.30004 17.3333 9.66671 17.3333ZM9.00004 21.3333C9.00004 20.96 9.30004 20.6667 9.66671 20.6667H23C23.3667 20.6667 23.6667 20.96 23.6667 21.3333C23.6667 21.7 23.3667 22 23 22H9.66671C9.30004 22 9.00004 21.7 9.00004 21.3333Z" fill="#080910"/>
<path d="M9 8.66665V9.99998C9 10.3667 9.3 10.6667 9.66667 10.6667H24.3333C24.7 10.6667 25 10.3667 25 9.99998V8.66665C25 7.55998 24.1 6.66665 23 6.66665H19.6667C19.6067 5.23332 18.52 4.07332 17.14 3.99998C16.4067 3.96665 15.7 4.21998 15.1667 4.72665C14.6333 5.23332 14.3333 5.93332 14.3333 6.66665H11C9.89333 6.66665 9 7.55998 9 8.66665Z" fill="#080910"/>
</svg>
