<svg width="40" height="40" viewBox="0 0 40 40" fill="none" xmlns="http://www.w3.org/2000/svg">
<path fill-rule="evenodd" clip-rule="evenodd" d="M28.125 33.7306C27.9181 33.7437 27.71 33.75 27.5 33.75C21.9806 33.75 17.5 29.2694 17.5 23.75C17.5 18.2306 21.9806 13.75 27.5 13.75C27.71 13.75 27.9181 13.7562 28.125 13.7694V8.74999C28.125 7.71437 27.2856 6.875 26.25 6.875H22.1875V5.74125C22.1875 4.98687 21.5756 4.37499 20.8212 4.37499H20.8194C20.7887 4.37499 20.7588 4.3625 20.7369 4.34125C20.7156 4.31937 20.7031 4.28937 20.7031 4.25875V4.05999C20.7031 3.64499 20.5381 3.24687 20.245 2.95312C19.9512 2.65999 19.5531 2.495 19.1381 2.495C17.4269 2.495 13.8231 2.495 12.1119 2.495C11.6969 2.495 11.2987 2.65999 11.005 2.95312C10.7119 3.24687 10.5469 3.64499 10.5469 4.05999V4.25875C10.5469 4.28937 10.5344 4.31937 10.5131 4.34125C10.4912 4.3625 10.4612 4.37499 10.4306 4.37499H10.4288C9.67438 4.37499 9.0625 4.98687 9.0625 5.74125V6.875H5C4.5025 6.875 4.02563 7.07249 3.67438 7.42437C3.3225 7.77562 3.125 8.25249 3.125 8.74999V35.625C3.125 36.1225 3.3225 36.5994 3.67438 36.9506C4.02563 37.3025 4.5025 37.5 5 37.5H26.25C27.2856 37.5 28.125 36.6606 28.125 35.625V33.7306ZM10 29.375C10 29.03 9.72 28.75 9.375 28.75H6.875C6.53 28.75 6.25 29.03 6.25 29.375V31.875C6.25 32.22 6.53 32.5 6.875 32.5H9.375C9.72 32.5 10 32.22 10 31.875V29.375ZM8.75 30V31.25H7.5V30H8.75ZM11.875 31.25H18.75C19.095 31.25 19.375 30.97 19.375 30.625C19.375 30.28 19.095 30 18.75 30H11.875C11.53 30 11.25 30.28 11.25 30.625C11.25 30.97 11.53 31.25 11.875 31.25ZM10 21.4062C10 21.0612 9.72 20.7812 9.375 20.7812H6.875C6.53 20.7812 6.25 21.0612 6.25 21.4062V23.9062C6.25 24.2512 6.53 24.5312 6.875 24.5312H9.375C9.72 24.5312 10 24.2512 10 23.9062V21.4062ZM8.75 22.0312V23.2812H7.5V22.0312H8.75ZM11.875 23.2812H15.625C15.97 23.2812 16.25 23.0012 16.25 22.6562C16.25 22.3112 15.97 22.0312 15.625 22.0312H11.875C11.53 22.0312 11.25 22.3112 11.25 22.6562C11.25 23.0012 11.53 23.2812 11.875 23.2812ZM10 13.4375C10 13.0925 9.72 12.8125 9.375 12.8125H6.875C6.53 12.8125 6.25 13.0925 6.25 13.4375V15.9375C6.25 16.2825 6.53 16.5625 6.875 16.5625H9.375C9.72 16.5625 10 16.2825 10 15.9375V13.4375ZM8.75 14.0625V15.3125H7.5V14.0625H8.75ZM11.875 15.3125H18.75C19.095 15.3125 19.375 15.0325 19.375 14.6875C19.375 14.3425 19.095 14.0625 18.75 14.0625H11.875C11.53 14.0625 11.25 14.3425 11.25 14.6875C11.25 15.0325 11.53 15.3125 11.875 15.3125ZM20.8194 5.62499H20.8212C20.8856 5.62499 20.9375 5.67687 20.9375 5.74125V9.37499C20.9375 9.71999 20.6575 9.99999 20.3125 9.99999H10.9375C10.5925 9.99999 10.3125 9.71999 10.3125 9.37499V5.74125C10.3125 5.67687 10.3644 5.62499 10.4288 5.62499H10.4306C10.7931 5.62499 11.1406 5.48124 11.3969 5.22499C11.6531 4.96874 11.7969 4.62125 11.7969 4.25875V4.05999C11.7969 3.97624 11.83 3.89625 11.8894 3.83687C11.9481 3.77812 12.0281 3.745 12.1119 3.745H19.1381C19.2219 3.745 19.3019 3.77812 19.3606 3.83687C19.42 3.89625 19.4531 3.97624 19.4531 4.05999V4.25875C19.4531 4.62125 19.5969 4.96874 19.8531 5.22499C20.1094 5.48124 20.4569 5.62499 20.8194 5.62499ZM13.75 8.74999H17.5C17.845 8.74999 18.125 8.46999 18.125 8.12499C18.125 7.77999 17.845 7.49999 17.5 7.49999H13.75C13.405 7.49999 13.125 7.77999 13.125 8.12499C13.125 8.46999 13.405 8.74999 13.75 8.74999Z" fill="#080910"/>
<path fill-rule="evenodd" clip-rule="evenodd" d="M27.5 15C32.3294 15 36.25 18.9206 36.25 23.75C36.25 28.5794 32.3294 32.5 27.5 32.5C22.6706 32.5 18.75 28.5794 18.75 23.75C18.75 18.9206 22.6706 15 27.5 15ZM26.25 24.375H28.75V25.3125C28.75 25.7269 28.9144 26.1244 29.2075 26.4175C29.5006 26.7106 29.8981 26.875 30.3125 26.875H30.625C31.0394 26.875 31.4369 26.7106 31.73 26.4175C32.0231 26.1244 32.1875 25.7269 32.1875 25.3125V24.375H32.5C32.845 24.375 33.125 24.095 33.125 23.75C33.125 23.405 32.845 23.125 32.5 23.125H32.1875V22.1875C32.1875 21.7731 32.0231 21.3756 31.73 21.0825C31.4369 20.7894 31.0394 20.625 30.625 20.625C30.5212 20.625 30.4163 20.625 30.3125 20.625C29.8981 20.625 29.5006 20.7894 29.2075 21.0825C28.9144 21.3756 28.75 21.7731 28.75 22.1875V23.125H26.25V22.1875C26.25 21.7731 26.0856 21.3756 25.7925 21.0825C25.4994 20.7894 25.1019 20.625 24.6875 20.625C24.5837 20.625 24.4788 20.625 24.375 20.625C23.9606 20.625 23.5631 20.7894 23.27 21.0825C22.9769 21.3756 22.8125 21.7731 22.8125 22.1875V23.125H22.5C22.155 23.125 21.875 23.405 21.875 23.75C21.875 24.095 22.155 24.375 22.5 24.375H22.8125V25.3125C22.8125 25.7269 22.9769 26.1244 23.27 26.4175C23.5631 26.7106 23.9606 26.875 24.375 26.875H24.6875C25.1019 26.875 25.4994 26.7106 25.7925 26.4175C26.0856 26.1244 26.25 25.7269 26.25 25.3125V24.375ZM30.9375 22.1875V25.3125C30.9375 25.3956 30.9044 25.475 30.8463 25.5338C30.7875 25.5919 30.7081 25.625 30.625 25.625H30.3125C30.2294 25.625 30.15 25.5919 30.0912 25.5338C30.0331 25.475 30 25.3956 30 25.3125V22.1875C30 22.1044 30.0331 22.025 30.0912 21.9662C30.15 21.9081 30.2294 21.875 30.3125 21.875H30.625C30.7081 21.875 30.7875 21.9081 30.8463 21.9662C30.9044 22.025 30.9375 22.1044 30.9375 22.1875ZM25 22.1875V25.3125C25 25.3956 24.9669 25.475 24.9088 25.5338C24.85 25.5919 24.7706 25.625 24.6875 25.625H24.375C24.2919 25.625 24.2125 25.5919 24.1537 25.5338C24.0956 25.475 24.0625 25.3956 24.0625 25.3125V22.1875C24.0625 22.1044 24.0956 22.025 24.1537 21.9662C24.2125 21.9081 24.2919 21.875 24.375 21.875H24.6875C24.7706 21.875 24.85 21.9081 24.9088 21.9662C24.9669 22.025 25 22.1044 25 22.1875Z" fill="#080910"/>
</svg>
