<svg width="34" height="34" viewBox="0 0 34 34" fill="none" xmlns="http://www.w3.org/2000/svg">
<path d="M0 17C0 7.61116 7.61116 0 17 0C26.3888 0 34 7.61116 34 17C34 26.3888 26.3888 34 17 34C7.61116 34 0 26.3888 0 17Z" fill="#080910"/>
<g clip-path="url(#clip0_11_1842)">
<path d="M20.75 9.5H13.25C11.1789 9.5 9.5 11.1789 9.5 13.25V20.75C9.5 22.8211 11.1789 24.5 13.25 24.5H20.75C22.8211 24.5 24.5 22.8211 24.5 20.75V13.25C24.5 11.1789 22.8211 9.5 20.75 9.5Z" stroke="#DDDEE1" stroke-width="2" stroke-linecap="round" stroke-linejoin="round"/>
<path d="M20 16.5275C20.0926 17.1517 19.986 17.7891 19.6953 18.3492C19.4047 18.9093 18.9449 19.3635 18.3812 19.6472C17.8176 19.9309 17.1789 20.0297 16.5559 19.9294C15.9329 19.8292 15.3573 19.535 14.9112 19.0889C14.465 18.6427 14.1708 18.0671 14.0706 17.4441C13.9703 16.8211 14.0691 16.1824 14.3528 15.6188C14.6365 15.0551 15.0907 14.5953 15.6508 14.3047C16.2109 14.014 16.8483 13.9074 17.4725 14C18.1092 14.0944 18.6987 14.3911 19.1538 14.8462C19.6089 15.3013 19.9056 15.8908 20 16.5275Z" stroke="#DDDEE1" stroke-width="2" stroke-linecap="round" stroke-linejoin="round"/>
<path d="M21.125 12.875H21.1325" stroke="#DDDEE1" stroke-width="2" stroke-linecap="round" stroke-linejoin="round"/>
</g>
<defs>
<clipPath id="clip0_11_1842">
<rect width="18" height="18" fill="white" transform="translate(8 8)"/>
</clipPath>
</defs>
</svg>
