<svg width="232" height="38" viewBox="0 0 232 38" fill="none" xmlns="http://www.w3.org/2000/svg">
<path d="M70.6458 33.7924L69.5136 7.42358H90.6281L90.9031 13.8274H77.1032L77.2957 18.3101H89.7759L90.0363 24.375H77.5561L77.9605 33.7924H70.6458Z" fill="#FAFAFA"/>
<path d="M95.2456 33.7924L94.1134 7.42358H101.466L102.598 33.7924H95.2456Z" fill="#FAFAFA"/>
<path d="M113.877 33.7924L113.02 13.8274H105.102L104.827 7.42358H127.978L128.253 13.8274H120.335L121.192 33.7924H113.877Z" fill="#FAFAFA"/>
<path d="M132.321 33.7924L131.188 7.42358H138.013L149.47 21.3614L148.872 7.42358H156.111L157.243 33.7924H150.833L138.939 19.3272L139.56 33.7924H132.321Z" fill="#FAFAFA"/>
<path d="M161.924 33.7924L160.792 7.42358H182.02L182.287 13.6391H168.298L168.47 17.6321H181.139L181.386 23.3955H168.717L168.897 27.5769H183.074L183.341 33.7924H161.924Z" fill="#FAFAFA"/>
<path d="M197.461 34.2444C192.786 34.2444 188.274 32.7753 184.906 29.8747L188.77 25.0153C191.46 27.0872 194.411 28.1796 197.465 28.1796C199.425 28.1796 200.452 27.5015 200.403 26.3715L200.4 26.2961C200.353 25.2037 199.46 24.601 195.843 23.7722C190.17 22.4915 185.766 20.9093 185.533 15.4849L185.53 15.4096C185.319 10.5125 189.051 6.97154 195.385 6.97154C199.872 6.97154 203.43 8.17697 206.395 10.4748L202.959 15.6356C200.473 13.9404 197.795 13.0364 195.457 13.0364C193.685 13.0364 192.85 13.7898 192.891 14.7315L192.894 14.8068C192.946 16.0123 193.873 16.5397 197.566 17.3684C203.693 18.6868 207.548 20.6457 207.76 25.5804L207.763 25.6557C207.994 31.0425 203.871 34.2444 197.461 34.2444Z" fill="#FAFAFA"/>
<path d="M221.689 34.2444C217.014 34.2444 212.502 32.7753 209.135 29.8747L212.998 25.0153C215.689 27.0872 218.639 28.1796 221.693 28.1796C223.653 28.1796 224.68 27.5015 224.631 26.3715L224.628 26.2961C224.581 25.2037 223.688 24.601 220.071 23.7722C214.398 22.4915 209.994 20.9093 209.761 15.4849L209.758 15.4096C209.547 10.5125 213.279 6.97154 219.613 6.97154C224.1 6.97154 227.658 8.17697 230.623 10.4748L227.187 15.6356C224.701 13.9404 222.023 13.0364 219.685 13.0364C217.913 13.0364 217.078 13.7898 217.119 14.7315L217.122 14.8068C217.174 16.0123 218.101 16.5397 221.794 17.3684C227.921 18.6868 231.776 20.6457 231.988 25.5804L231.991 25.6557C232.222 31.0425 228.099 34.2444 221.689 34.2444Z" fill="#FAFAFA"/>
<path fill-rule="evenodd" clip-rule="evenodd" d="M29.4248 30.9851L32.634 37.86H52.2671L55.3517 31.2523L39.5354 6.48415L55.1542 6.4848L52.5255 0H34.73L31.7025 6.48562L47.1389 30.9851H29.4248ZM6.53321 37.86H0L8.53879 0H31.9904L21.8873 20.9421L29.8234 37.86H22.2872L14.6494 21.4378L21.6042 6.48434H13.6095L6.53321 37.86Z" fill="#FF6600"/>
</svg>
