<svg width="32" height="32" viewBox="0 0 32 32" fill="none" xmlns="http://www.w3.org/2000/svg">
<path d="M12.6379 23.5635C12.5584 23.5509 12.4796 23.5354 12.4006 23.5205C12.4795 23.5355 12.5584 23.5508 12.6379 23.5635ZM25.9719 23.5635C25.8963 23.5515 25.8214 23.5365 25.7463 23.5225C25.8213 23.5366 25.8963 23.5514 25.9719 23.5635ZM11.8547 23.3994C7.98997 22.4048 4.92521 18.7414 4.92505 14.667V9H10.925V10.667C10.9249 12.7812 9.37233 14.333 7.25806 14.333H5.59204V15.333C5.59204 19.1724 8.28137 22.4629 11.8547 23.3994ZM25.5559 23.4863C25.4402 23.462 25.3255 23.4344 25.2112 23.4053C25.3252 23.4348 25.4402 23.4616 25.5559 23.4863ZM24.2581 9V10.667C24.2579 12.7811 22.7061 14.3328 20.592 14.333H18.925V15.333C18.925 19.1726 21.6151 22.4631 25.1887 23.3994C21.3237 22.4051 18.2582 18.7416 18.2581 14.667V9H24.2581ZM12.2278 23.4873C12.1072 23.462 11.9875 23.4338 11.8684 23.4033C11.9872 23.4342 12.1071 23.4617 12.2278 23.4873Z" stroke="#FF6600" stroke-width="2"/>
</svg>
