<svg width="40" height="37" viewBox="0 0 40 37" fill="none" xmlns="http://www.w3.org/2000/svg">
<path d="M39.3334 4.33333H38.6667V2.99997C38.6659 2.26396 38.0695 1.66747 37.3334 1.66661H36C35.9991 0.930596 35.4027 0.334111 34.6666 0.333252H33.3333C32.5973 0.334111 32.0008 0.930596 31.9999 1.66661V4.33325H24.6666V5.66661H27.3332V25.6666H22V23H23.3334C24.0688 22.9978 24.6645 22.4021 24.6667 21.6666V5.66661H15.3334V21.6666C15.3355 22.4021 15.9312 22.9978 16.6667 23H18V25.6666H12.6666V5.66661H15.3334L15.3333 4.33333H8V1.66661C7.99914 0.930596 7.40266 0.334111 6.66664 0.333252H5.33336C4.59734 0.334111 4.00086 0.930596 4 1.66661H2.66664C1.93062 1.66747 1.33414 2.26396 1.33336 2.99997V4.33333H0.666641C0.298438 4.33333 0 4.63177 0 4.99997C0 5.36817 0.298438 5.66661 0.666641 5.66661H1.33328V6.99997C1.33414 7.73599 1.93062 8.33247 2.66664 8.33333H4C4.00086 9.06935 4.59727 9.66583 5.33336 9.66669H6.66672C7.40273 9.66583 7.99922 9.06942 8.00008 8.33333V5.66661H10V14.3333H9.33336C8.96562 14.3343 8.66781 14.6322 8.66672 14.9999V33.6665C7.93031 33.6665 7.33336 34.2635 7.33336 34.9999C7.33336 35.7363 7.93031 36.3333 8.66672 36.3333H12.6667C13.4031 36.3333 14.0001 35.7363 14.0001 34.9999C14.0001 34.2635 13.4031 33.6665 12.6667 33.6665V28.3332H18V35.6665C17.9999 35.8433 18.0702 36.0129 18.1952 36.138C18.3202 36.263 18.4898 36.3333 18.6667 36.3333H21.3334C21.5102 36.3333 21.6798 36.2631 21.8048 36.138C21.9298 36.013 22.0001 35.8434 22.0001 35.6665V28.3332H27.3334V33.6665C26.597 33.6665 26.0001 34.2635 26.0001 34.9999C26.0001 35.7363 26.597 36.3333 27.3334 36.3333H31.3334C32.0698 36.3333 32.6668 35.7363 32.6668 34.9999C32.6668 34.2635 32.0698 33.6665 31.3334 33.6665V15C31.3323 14.6322 31.0345 14.3344 30.6668 14.3333H30V5.66661H32V8.33325C32.0009 9.06927 32.5973 9.66575 33.3334 9.66661H34.6667C35.4027 9.66575 35.9992 9.06935 36.0001 8.33325H37.3334C38.0695 8.33239 38.6659 7.73599 38.6668 6.99989V5.66661H39.3334C39.7016 5.66661 40.0001 5.3681 40.0001 4.99997C40.0001 4.63185 39.7016 4.33333 39.3334 4.33333ZM4 6.99997H2.66664V2.99997H4V6.99997ZM5.33336 8.33333V1.66661H6.66672L6.66703 4.99833L6.66672 4.99989L6.66703 5.00146L6.66734 8.33317H5.33336V8.33333ZM20.6666 35H19.3333V28.3333H20.6666V35ZM20.6666 25.6666H19.3333V23H20.6666V25.6666ZM34.6666 8.33333H33.3333V1.66661H34.6666V8.33333ZM37.3334 6.99997H36V2.99997H37.3334V6.99997Z" fill="#080910"/>
</svg>
