<svg width="16" height="19" viewBox="0 0 16 19" fill="none" xmlns="http://www.w3.org/2000/svg">
<g clip-path="url(#clip0_0_21)">
<path d="M7.49003 5.64503C6.80049 5.64503 6.16091 5.81753 5.57131 6.16253C4.9817 6.50753 4.51201 6.97503 4.16224 7.56503C3.81248 8.15503 3.63759 8.79753 3.63759 9.49253C3.63759 10.1875 3.80998 10.83 4.15475 11.42C4.49952 12.01 4.96921 12.4775 5.56381 12.8225C6.15841 13.1675 6.80299 13.34 7.49752 13.34C8.19206 13.34 8.83413 13.1675 9.42374 12.8225C10.0133 12.4775 10.4805 12.01 10.8253 11.42C11.1701 10.83 11.3425 10.1875 11.3425 9.49253C11.3425 8.79753 11.1701 8.15503 10.8253 7.56503C10.4805 6.97503 10.0133 6.50753 9.42374 6.16253C8.83413 5.81753 8.18956 5.64503 7.49003 5.64503ZM7.49003 11.87C7.06031 11.87 6.66308 11.7625 6.29832 11.5475C5.93356 11.3325 5.64376 11.0425 5.4289 10.6775C5.21404 10.3125 5.10662 9.91503 5.10662 9.48503C5.10662 9.05503 5.21404 8.66003 5.4289 8.30003C5.64376 7.94003 5.93356 7.65253 6.29832 7.43753C6.66308 7.22253 7.06031 7.11503 7.49003 7.11503C7.91974 7.11503 8.31698 7.22253 8.68173 7.43753C9.04649 7.65253 9.3363 7.94003 9.55115 8.30003C9.76601 8.66003 9.87344 9.05503 9.87344 9.48503C9.87344 9.91503 9.76601 10.3125 9.55115 10.6775C9.3363 11.0425 9.04649 11.3325 8.68173 11.5475C8.31698 11.7625 7.91974 11.87 7.49003 11.87ZM10.6379 2.07503H4.34212C3.57264 2.07503 2.85811 2.27003 2.19855 2.66003C1.54899 3.04003 1.03433 3.55753 0.654581 4.21253C0.274834 4.86753 0.0849609 5.58003 0.0849609 6.35003V12.635C0.0849609 13.405 0.274834 14.1175 0.654581 14.7725C1.03433 15.4275 1.54899 15.945 2.19855 16.325C2.85811 16.715 3.57264 16.91 4.34212 16.91H10.6379C11.4074 16.91 12.1269 16.715 12.7965 16.325C13.4361 15.945 13.9457 15.435 14.3255 14.795C14.7152 14.125 14.9101 13.405 14.9101 12.635V6.35003C14.9101 5.58003 14.7152 4.86003 14.3255 4.19003C13.9457 3.55003 13.4361 3.04003 12.7965 2.66003C12.1269 2.27003 11.4074 2.07503 10.6379 2.07503ZM13.4411 12.635C13.4411 13.145 13.3161 13.615 13.0663 14.045C12.8165 14.475 12.4767 14.815 12.047 15.065C11.6173 15.315 11.1476 15.44 10.6379 15.44H4.34212C3.83246 15.44 3.36528 15.315 2.94056 15.065C2.51584 14.815 2.17857 14.475 1.92873 14.045C1.6789 13.615 1.55398 13.145 1.55398 12.635V6.35003C1.55398 5.84003 1.6789 5.37003 1.92873 4.94003C2.17857 4.51003 2.51584 4.17003 2.94056 3.92003C3.36528 3.67003 3.83246 3.54503 4.34212 3.54503H10.6379C11.1476 3.54503 11.6173 3.67003 12.047 3.92003C12.4767 4.17003 12.8165 4.51003 13.0663 4.94003C13.3161 5.37003 13.4411 5.84003 13.4411 6.35003V12.635ZM11.4024 4.52003C11.1226 4.52003 10.8828 4.62003 10.6829 4.82003C10.483 5.02003 10.3831 5.26003 10.3831 5.54003C10.3831 5.82003 10.483 6.05753 10.6829 6.25253C10.8828 6.44753 11.1226 6.54503 11.4024 6.54503C11.6822 6.54503 11.9196 6.44753 12.1144 6.25253C12.3093 6.05753 12.4068 5.82003 12.4068 5.54003C12.4068 5.26003 12.3093 5.02003 12.1144 4.82003C11.9196 4.62003 11.6822 4.52003 11.4024 4.52003Z" fill="#FAFAFA"/>
</g>
<defs>
<clipPath id="clip0_0_21">
<rect width="15.01" height="15" fill="white" transform="matrix(1 0 0 -1 0 17)"/>
</clipPath>
</defs>
</svg>
